<?xml version="1.0" encoding="UTF-8" standalone="no"?><!-- Generator: Gravit.io --><svg xmlns="http://www.w3.org/2000/svg" xmlns:xlink="http://www.w3.org/1999/xlink" style="isolation:isolate" viewBox="122.436 138.084 313.248 39.552" width="313.248pt" height="39.552pt"><defs><clipPath id="_clipPath_0WyWfttYIieyx5QTRntPuzubsGiymjRn"><rect x="122.436" y="138.084" width="313.248" height="39.552"/></clipPath></defs><g clip-path="url(#_clipPath_0WyWfttYIieyx5QTRntPuzubsGiymjRn)"><path d=" M 139.956 177.636 C 142.932 177.636 144.708 177.108 147.252 176.148 L 145.908 171.972 C 144.18 172.692 142.692 172.98 141.3 172.98 C 138.516 172.98 136.5 171.588 136.5 168.036 L 136.5 139.284 L 122.436 139.284 L 122.436 143.844 L 130.836 143.844 L 130.836 167.7 C 130.836 174.084 134.004 177.636 139.956 177.636 Z  M 168.084 177.636 C 172.02 177.636 175.572 176.34 178.26 174.564 L 176.34 171.012 C 173.988 172.356 171.684 173.22 168.804 173.22 C 163.86 173.22 160.212 170.724 159.588 165.588 L 179.124 165.588 C 179.22 164.916 179.364 163.764 179.364 162.612 C 179.364 155.364 174.996 150.276 167.316 150.276 C 160.308 150.276 153.876 155.412 153.876 163.908 C 153.876 172.596 160.164 177.636 168.084 177.636 Z  M 167.46 154.644 C 171.348 154.644 173.892 156.996 174.276 161.508 L 159.684 161.508 C 160.5 157.092 163.62 154.644 167.46 154.644 Z  M 196.692 177.636 C 199.716 177.636 202.644 175.956 204.708 173.892 L 204.852 173.892 L 205.332 177.012 L 209.94 177.012 L 209.94 139.284 L 204.276 139.284 L 204.276 148.884 L 204.564 153.444 L 204.42 153.444 C 202.308 151.428 200.052 150.276 197.076 150.276 C 191.076 150.276 185.46 155.508 185.46 163.956 C 185.46 172.596 189.924 177.636 196.692 177.636 Z  M 198.036 172.932 C 193.812 172.932 191.268 169.764 191.268 163.908 C 191.268 158.34 194.484 154.98 198.372 154.98 C 200.34 154.98 202.308 155.652 204.276 157.572 L 204.276 169.62 C 202.356 171.876 200.292 172.932 198.036 172.932 Z  M 218.82 161.46 L 242.244 161.46 L 242.244 157.38 L 218.82 157.38 L 218.82 161.46 Z  M 249.204 177.012 L 254.724 177.012 L 254.724 158.58 C 255.78 156.276 256.74 155.124 258.228 155.124 C 259.812 155.124 260.484 156.372 260.484 158.868 L 260.484 177.012 L 265.284 177.012 L 265.284 158.58 C 266.436 156.276 267.3 155.124 268.836 155.124 C 270.42 155.124 271.092 156.372 271.092 158.868 L 271.092 177.012 L 276.612 177.012 L 276.612 158.484 C 276.612 153.252 274.452 150.276 270.804 150.276 C 267.78 150.276 266.1 152.1 264.804 154.692 C 264.084 151.764 262.5 150.276 260.004 150.276 C 257.028 150.276 255.348 152.004 254.196 154.308 L 254.004 154.308 L 253.62 150.948 L 249.204 150.948 L 249.204 177.012 Z  M 291.252 177.636 C 294.852 177.636 298.356 175.86 301.14 173.7 L 301.332 173.7 L 301.764 177.012 L 306.42 177.012 L 306.42 161.412 C 306.42 154.308 302.58 150.276 295.38 150.276 C 290.868 150.276 286.548 152.1 283.524 153.924 L 285.636 157.764 C 288.276 156.276 291.3 154.884 294.324 154.884 C 298.788 154.884 300.612 157.284 300.756 160.356 C 287.748 161.316 282.516 164.196 282.516 170.052 C 282.516 174.66 286.212 177.636 291.252 177.636 Z  M 292.932 173.172 C 290.244 173.172 287.988 172.116 287.988 169.62 C 287.988 166.644 290.916 164.676 300.756 163.956 L 300.756 169.812 C 298.212 171.924 295.62 173.172 292.932 173.172 Z  M 331.428 177.636 C 334.836 177.636 337.428 176.964 339.78 176.148 L 338.676 172.02 C 336.9 172.692 335.076 173.124 332.772 173.124 C 328.212 173.124 326.628 171.012 326.628 166.596 L 326.628 155.46 L 338.772 155.46 L 338.772 150.9 L 326.628 150.9 L 326.628 142.644 L 321.924 142.644 L 321.204 150.9 L 313.86 151.188 L 313.86 155.46 L 320.964 155.46 L 320.964 166.596 C 320.964 173.172 323.604 177.636 331.428 177.636 Z  M 349.764 177.012 L 355.428 177.012 L 355.428 162.372 C 358.212 157.188 361.812 155.316 365.46 155.316 C 367.428 155.316 368.484 155.604 370.212 156.132 L 371.46 151.332 C 369.876 150.612 368.388 150.276 366.324 150.276 C 361.764 150.276 357.732 152.676 355.092 156.9 L 354.9 156.9 L 354.468 150.9 L 349.764 150.9 L 349.764 177.012 Z  M 390.708 177.012 L 396.372 177.012 L 396.372 150.9 L 379.188 150.9 L 379.188 155.46 L 390.708 155.46 L 390.708 177.012 Z  M 393.108 145.956 C 395.508 145.956 397.236 144.42 397.236 142.068 C 397.236 139.716 395.508 138.084 393.108 138.084 C 390.708 138.084 388.98 139.716 388.98 142.068 C 388.98 144.42 390.708 145.956 393.108 145.956 Z  M 409.524 177.012 L 415.524 177.012 L 419.172 171.636 C 420.132 170.052 421.092 168.516 422.052 166.98 L 422.292 166.98 C 423.396 168.468 424.548 170.148 425.556 171.636 L 429.54 177.012 L 435.684 177.012 L 426.084 164.052 L 435.06 150.9 L 429.06 150.9 L 425.748 156.036 C 424.932 157.476 423.972 159.06 423.108 160.5 L 422.916 160.5 C 421.908 159.06 420.852 157.524 419.988 156.084 L 416.34 150.9 L 410.196 150.9 L 419.124 163.428 L 409.524 177.012 Z " fill="rgb(0,0,0)"/></g></svg>